<svg width="416" height="127" viewBox="0 0 416 127" fill="none" xmlns="http://www.w3.org/2000/svg">
<path d="M270.999 63.0308V60.4377H208.012V115.837C199.863 115.841 191.825 113.959 184.525 110.338C177.225 106.718 170.862 101.457 165.934 94.9682C161.006 88.4792 157.647 80.9377 156.118 72.934C154.59 64.9303 154.935 56.6816 157.126 48.8334C159.317 40.9851 163.294 33.7503 168.746 27.6952C174.199 21.6401 180.979 16.9289 188.555 13.9304C196.132 10.9319 204.299 9.72734 212.419 10.4111C220.538 11.0948 228.389 13.6483 235.358 17.8717L239.468 8.47152C227.457 1.54315 213.495 -1.22791 199.748 0.588158C186.001 2.40423 173.237 8.70593 163.437 18.5158C153.636 28.3256 147.347 41.0954 145.544 54.8442C143.742 68.593 146.526 82.5524 153.466 94.5572C160.406 106.562 171.114 115.941 183.928 121.24C196.742 126.538 210.947 127.461 224.339 123.863C237.73 120.265 249.561 112.349 257.994 101.342C266.428 90.3354 270.994 76.8531 270.984 62.9866" fill="white"/>
<path d="M353.012 0.0442165H350.419V62.9724H405.818C405.821 71.1206 403.939 79.1592 400.319 86.459C396.699 93.7588 391.438 100.122 384.949 105.05C378.46 109.978 370.919 113.337 362.915 114.866C354.911 116.394 346.662 116.049 338.814 113.858C330.966 111.667 323.731 107.69 317.676 102.238C311.621 96.7852 306.91 90.0054 303.911 82.4289C300.913 74.8525 299.708 66.6849 300.392 58.5653C301.076 50.4458 303.629 42.5947 307.853 35.6264L298.452 31.5157C291.524 43.5272 288.753 57.4893 290.569 71.2364C292.385 84.9834 298.687 97.747 308.497 107.547C318.307 117.348 331.076 123.637 344.825 125.44C358.574 127.242 372.533 124.458 384.538 117.518C396.543 110.577 405.922 99.8699 411.221 87.0557C416.519 74.2415 417.441 60.037 413.844 46.6453C410.246 33.2536 402.33 21.4234 391.323 12.9896C380.316 4.55582 366.834 -0.0101191 352.967 1.68391e-05" fill="white"/>
<path d="M126.018 63.0302V65.6233H63.0313V10.2242C54.8841 10.2196 46.8462 12.1004 39.5468 15.7192C32.2473 19.338 25.8842 24.5968 20.9554 31.0841C16.0265 37.5713 12.6656 45.111 11.1356 53.1134C9.60553 61.1157 9.94791 69.3635 12.1359 77.2115C14.3239 85.0595 18.2981 92.2947 23.7477 98.3511C29.1973 104.408 35.9743 109.121 43.5486 112.122C51.1229 115.124 59.2889 116.332 67.4078 115.652C75.5266 114.972 83.3781 112.423 90.3478 108.204L94.4586 117.604C82.447 124.533 68.4849 127.304 54.7378 125.488C40.9908 123.672 28.2272 117.37 18.4269 107.56C8.62657 97.7501 2.33731 84.9804 0.534625 71.2316C-1.26806 57.4828 1.51658 43.5233 8.45665 31.5185C15.3967 19.5137 26.1043 10.1346 38.9185 4.83592C51.7327 -0.462752 65.9373 -1.38478 79.3289 2.21283C92.7206 5.81044 104.551 13.7266 112.985 24.7335C121.418 35.7403 125.984 49.2226 125.974 63.0891" fill="white"/>
</svg>
